# xmcd
#
# Track frame offsets:
#	182
#	18293
#	31946
#	44833
#	61697
#	76193
#	91396
#	105011
#	120298
#	141368
#	155904
#	170063
#	188005
#	207015
#	221939
#	239041
#	255702
#	270714
#
# Disc length: 3827 seconds
#
# Revision: 2
# Processed by: cddbd v1.5.2PL0 Copyright (c) Steve Scherf et al.
# Submitted via: audiograbber 1.83.01
#
DISCID=fa0ef112
DTITLE=Various Artist - Cream Of Country Vol. 18
DYEAR=2014
DGENRE=Country
TTITLE0=Lee Brice - I Don't Dance
TTITLE1=Brad Paisley - River Bank
TTITLE2=Miranda Lambert with Carrie Underwood - Somethin' Bad
TTITLE3=Blake Shelton - Doin' What She Likes
TTITLE4=Jake Owen - Beachin'
TTITLE5=Eli Young Band - Dust
TTITLE6=Brett Eldredge - Beat Of The Music
TTITLE7=Kacey Musgraves - Follow Your Arrow (Album Version)
TTITLE8=Zac Brown Band - Sweet Annie
TTITLE9=Chris Young - Who I Am With You
TTITLE10=Kenny Chesney - American Kids
TTITLE11=David Nail - Whatever She's Got (Album Version)
TTITLE12=The Band Perry - Don't Let Me Be Lonely
TTITLE13=Cole Swindell - Chillin' It
TTITLE14=Jerrod Niemann - Drink To That All Night
TTITLE15=The Swon Brothers - Later On
TTITLE16=Sara Evans - Slow Me Down (Single Edit)
TTITLE17=Dan and Shay - 19 You and Me
EXTD=CD and DVD
EXTT0=
EXTT1=
EXTT2=
EXTT3=
EXTT4=
EXTT5=
EXTT6=
EXTT7=
EXTT8=
EXTT9=
EXTT10=
EXTT11=
EXTT12=
EXTT13=
EXTT14=
EXTT15=
EXTT16=
EXTT17=
PLAYORDER=
